<?xml version="1.0" standalone="no"?>
<!DOCTYPE svg PUBLIC "-//W3C//DTD SVG 20010904//EN"
 "http://www.w3.org/TR/2001/REC-SVG-20010904/DTD/svg10.dtd">
<svg version="1.0" xmlns="http://www.w3.org/2000/svg"
 width="300.000000pt" height="169.000000pt" viewBox="0 0 300.000000 169.000000"
 preserveAspectRatio="xMidYMid meet">
<metadata>
Created by potrace 1.10, written by Peter Selinger 2001-2011
</metadata>
<g transform="translate(0.000000,169.000000) scale(0.100000,-0.100000)"
fill="#000000" stroke="none">
<path d="M1347 1391 l6 -59 -42 -4 -41 -4 0 43 c0 23 5 45 10 48 13 8 3 25
-14 25 -9 0 -13 -18 -12 -61 1 -43 -3 -63 -12 -67 -7 -2 -16 5 -19 17 -5 22
-27 28 -38 12 -3 -6 4 -15 15 -21 24 -13 26 -26 4 -34 -20 -8 -132 86 -145
122 -8 20 -12 22 -25 11 -13 -11 -11 -16 18 -38 62 -48 133 -120 125 -127 -4
-4 -27 11 -50 34 -24 23 -50 42 -59 42 -9 0 -20 5 -23 10 -5 8 -11 7 -21 -1
-20 -17 -6 -31 24 -25 22 5 35 -2 69 -34 l42 -40 -19 -42 c-11 -24 -20 -53
-20 -65 0 -20 -3 -21 -57 -16 -41 4 -62 11 -72 24 -16 22 -41 25 -41 5 0 -23
58 -46 117 -46 29 0 53 -4 53 -10 0 -13 -207 -13 -215 0 -8 13 -25 3 -25 -13
0 -9 33 -11 125 -8 112 3 125 1 125 -14 0 -15 -11 -17 -100 -14 -61 3 -100 0
-100 -6 0 -6 40 -8 104 -6 87 2 104 0 109 -13 6 -14 -5 -16 -77 -16 -64 0 -87
-4 -97 -16 -10 -12 -28 -15 -83 -12 -58 2 -71 0 -71 -12 0 -23 121 -14 156 11
35 25 179 28 199 4 11 -13 1 -15 -83 -15 -88 0 -98 -2 -126 -26 -17 -14 -38
-24 -45 -21 -16 6 -40 -16 -29 -26 13 -14 34 -6 72 28 l38 35 99 0 c85 0 103
-3 124 -21 l25 -20 -35 5 c-19 3 -69 6 -110 7 -65 2 -75 0 -78 -15 -3 -15 1
-17 25 -12 27 5 186 10 246 7 16 0 26 -5 22 -11 -4 -6 -54 -10 -118 -10 l-112
0 -53 -46 -53 -47 -65 6 c-56 4 -64 3 -64 -13 0 -15 8 -17 72 -12 69 5 72 4
58 -13 -8 -9 -25 -21 -38 -26 -13 -5 -22 -14 -20 -21 7 -20 28 -21 34 -1 4 10
21 33 38 52 17 19 24 30 16 26 -8 -4 3 11 25 34 21 22 41 41 44 41 3 0 -10
-16 -29 -35 -19 -19 -29 -35 -24 -35 6 0 25 16 44 35 l34 35 101 0 c89 0 104
3 120 20 19 21 45 27 45 11 0 -5 -13 -19 -29 -30 -24 -17 -44 -21 -108 -21
-77 0 -80 -1 -113 -35 -28 -29 -39 -35 -62 -30 -22 5 -28 3 -28 -10 0 -27 59
-9 100 31 35 33 38 34 116 34 78 0 81 1 114 35 19 19 41 35 49 35 9 0 -2 -18
-29 -45 -44 -45 -44 -45 -115 -45 l-71 0 -69 -70 c-38 -38 -75 -70 -82 -70
-19 0 -24 -17 -8 -30 12 -10 16 -9 21 3 3 9 21 32 40 52 l34 36 0 -66 0 -66
184 3 184 3 43 30 c23 17 51 47 62 68 15 30 25 37 48 37 l29 0 0 -70 0 -70 65
0 65 0 0 70 0 70 38 0 c30 0 45 -7 71 -34 30 -31 33 -39 27 -75 -6 -40 6 -63
20 -39 18 29 3 83 -34 121 -31 31 -42 37 -79 37 -24 0 -43 5 -43 10 0 6 24 10
54 10 50 0 57 -3 106 -47 28 -25 56 -57 61 -71 5 -13 15 -22 22 -19 16 5 22
37 7 37 -7 0 -40 25 -75 55 -60 53 -65 55 -119 55 -56 0 -56 0 -56 30 l0 30
73 0 73 0 44 -45 c37 -38 50 -45 82 -45 45 0 86 -24 99 -58 5 -13 14 -22 21
-20 22 8 20 28 -4 37 -13 5 -32 18 -42 30 -13 15 -31 21 -58 21 -33 0 -49 8
-92 45 -52 44 -54 45 -125 45 -41 0 -71 4 -71 10 0 6 32 10 76 10 64 0 80 -4
107 -24 18 -13 46 -26 62 -28 17 -3 36 -7 44 -9 8 -2 17 4 19 13 3 15 -3 16
-45 12 -41 -5 -51 -3 -68 16 l-20 22 99 -3 c68 -3 101 0 103 7 5 14 -24 26
-32 14 -4 -6 -79 -10 -176 -10 l-169 0 0 30 0 30 88 0 c85 0 89 1 117 30 16
17 34 30 41 30 19 0 28 20 15 33 -7 7 -22 -3 -52 -36 l-41 -47 -84 0 -84 0 0
30 c0 30 0 30 58 30 57 0 58 0 117 61 58 59 61 60 103 55 33 -4 42 -2 42 9 0
12 -9 14 -42 9 -33 -5 -58 -20 -110 -65 -62 -55 -69 -59 -117 -59 -28 0 -51 5
-51 10 0 6 22 10 48 10 45 0 51 3 107 61 33 33 70 65 83 70 13 5 22 14 20 21
-7 20 -28 21 -36 1 -4 -10 -37 -46 -73 -80 -59 -57 -70 -63 -107 -63 -42 0
-42 0 -42 38 0 35 -5 42 -62 84 l-63 46 -3 -84 -3 -84 -34 0 -35 0 0 139 0
140 -27 3 c-25 3 -28 7 -25 33 2 17 4 39 5 50 1 12 -4 20 -13 20 -12 0 -14
-11 -12 -52 4 -49 2 -53 -18 -53 -18 0 -20 5 -17 38 2 20 6 43 8 51 2 8 -4 16
-13 19 -15 3 -16 -4 -11 -52 5 -51 4 -56 -14 -56 -13 0 -23 8 -26 21 -6 23
-27 17 -27 -7 0 -9 -11 -14 -31 -14 l-32 0 6 60 c4 46 2 60 -8 60 -10 0 -12
-14 -8 -59z m221 -118 c5 -33 -25 -42 -141 -42 -143 0 -184 -22 -202 -109 -5
-24 -1 -41 15 -67 29 -47 40 -52 145 -59 103 -8 142 -27 182 -87 54 -82 32
-183 -53 -242 -40 -28 -46 -29 -170 -31 -154 -2 -174 1 -174 24 0 32 23 38
153 39 71 0 136 5 148 11 28 15 59 69 59 103 0 15 -7 41 -15 57 -25 48 -52 60
-131 60 -39 0 -86 5 -105 11 -40 14 -85 53 -106 93 -37 70 -3 187 67 231 47
29 68 33 210 31 110 -1 115 -2 118 -23z m-218 -121 c0 -12 -6 -10 -25 8 -13
12 -22 27 -19 32 8 12 44 -21 44 -40z m29 22 c12 -15 21 -40 21 -57 0 -29 0
-30 -20 -12 -11 10 -20 27 -20 38 0 11 -7 29 -17 39 -14 16 -14 18 0 18 8 0
25 -12 36 -26z m61 -59 c0 -69 -3 -85 -15 -85 -12 0 -15 14 -15 62 0 50 -4 66
-22 85 l-21 23 36 0 37 0 0 -85z m50 -6 c0 -81 -2 -90 -17 -87 -15 3 -18 17
-21 91 -3 82 -2 87 18 87 19 0 20 -6 20 -91z m110 11 l0 -80 40 0 c22 0 40 -4
40 -10 0 -6 -27 -10 -60 -10 l-60 0 0 85 c0 50 -4 85 -10 85 -6 0 -10 -37 -10
-90 l0 -90 70 0 70 0 0 -30 c0 -29 -1 -30 -49 -30 -28 0 -53 5 -56 10 -4 6 14
10 47 11 46 1 49 2 24 9 -16 5 -41 6 -56 3 -18 -3 -39 1 -57 12 -28 16 -28 18
-28 111 l-1 94 48 0 48 0 0 -80z m-200 -67 c0 -21 -5 -23 -48 -23 -52 0 -83
22 -97 68 -9 31 -2 28 45 -18 53 -52 52 -38 -2 17 -23 23 -39 46 -35 50 9 8
86 -64 97 -92 8 -19 9 -19 9 2 1 14 -16 36 -49 64 -27 23 -47 46 -44 50 10 16
124 -93 124 -118z m371 33 c9 -34 9 -333 0 -396 -5 -36 -10 -46 -27 -48 -18
-2 -23 3 -27 30 -7 48 -8 322 -1 401 6 66 7 67 27 54 12 -8 24 -26 28 -41z
m-91 -176 c0 -26 -4 -30 -27 -30 -21 0 -33 8 -45 30 l-17 30 44 0 c43 0 45 -1
45 -30z m-200 -44 c11 -14 8 -16 -27 -16 -32 0 -46 -7 -78 -40 -37 -38 -42
-40 -100 -40 -49 0 -66 -4 -80 -20 -10 -11 -27 -20 -39 -20 -17 0 -16 4 14 35
32 33 38 35 100 35 66 0 66 0 114 49 51 52 64 54 96 17z m20 -36 c0 -5 -17
-10 -38 -10 -31 0 -45 -7 -80 -43 -42 -43 -43 -43 -118 -45 -66 -1 -74 1 -64
13 9 11 33 15 79 15 65 0 68 1 106 40 32 33 46 40 77 40 21 0 38 -4 38 -10z
m180 -20 c0 -25 -4 -30 -25 -30 -32 0 -34 29 -2 31 l22 2 -22 4 c-31 6 -29 23
2 23 21 0 25 -5 25 -30z m-180 -15 c0 -10 -10 -15 -30 -15 -22 0 -30 -5 -29
-17 0 -11 3 -13 6 -5 2 6 14 12 26 12 22 -1 22 -1 -2 -20 -16 -14 -38 -20 -69
-20 l-46 0 39 40 c30 31 47 40 72 40 23 0 33 -5 33 -15z m180 -35 c0 -5 -14
-10 -31 -10 -17 0 -28 4 -24 10 3 6 17 10 31 10 13 0 24 -4 24 -10z"/>
<path d="M1710 1419 c-65 -26 -81 -110 -31 -160 61 -61 161 -14 161 75 0 32
-46 84 -80 90 -14 3 -36 1 -50 -5z m60 -57 c30 -24 21 -69 -15 -78 -48 -12
-75 45 -39 80 20 20 27 20 54 -2z"/>
<path d="M926 1273 c-3 -3 -6 -12 -6 -19 0 -10 13 -12 48 -8 44 5 49 4 81 -30
33 -34 71 -48 71 -26 0 6 -7 10 -16 10 -9 0 -33 14 -54 30 -21 17 -48 30 -60
30 -12 0 -29 4 -39 10 -10 5 -21 6 -25 3z"/>
<path d="M955 1210 c-12 -20 7 -31 41 -24 30 5 40 2 64 -21 16 -15 34 -25 42
-23 8 3 4 9 -12 18 -14 7 -34 20 -45 30 -24 21 -82 33 -90 20z"/>
<path d="M2181 1147 c-14 -35 -49 -57 -94 -57 -33 0 -48 -8 -97 -53 -51 -45
-64 -53 -92 -49 -18 2 -44 -1 -58 -7 -21 -8 -16 -10 33 -10 58 -1 60 0 120 54
53 48 66 55 102 55 30 0 47 6 61 21 10 12 29 25 42 30 24 9 26 29 4 37 -7 2
-16 -8 -21 -21z"/>
<path d="M2069 973 c-22 -3 -46 -14 -59 -29 -21 -22 -31 -24 -109 -24 -59 0
-81 -3 -71 -10 8 -5 45 -10 82 -10 57 0 71 4 98 26 27 23 37 26 75 20 40 -5
45 -4 45 14 0 11 -6 19 -12 18 -7 -1 -29 -3 -49 -5z"/>
<path d="M974 839 c-10 -17 13 -36 27 -22 12 12 4 33 -11 33 -5 0 -12 -5 -16
-11z"/>
<path d="M1822 815 c2 -3 31 -8 64 -11 53 -6 64 -11 109 -54 38 -37 60 -49 93
-54 38 -6 43 -4 40 11 -3 14 -11 17 -41 15 -33 -3 -44 3 -94 47 -55 49 -59 51
-117 51 -32 0 -57 -2 -54 -5z"/>
<path d="M1500 530 c0 -5 18 -10 40 -10 22 0 40 5 40 10 0 6 -18 10 -40 10
-22 0 -40 -4 -40 -10z"/>
<path d="M824 435 c-7 -18 3 -35 22 -35 8 0 14 -4 14 -10 0 -5 -12 -10 -27
-10 -20 0 -24 -3 -16 -11 15 -15 63 -3 63 16 0 9 -12 21 -27 27 l-28 12 28 4
c15 2 27 8 27 13 0 15 -50 10 -56 -6z"/>
<path d="M897 443 c-14 -13 -7 -71 9 -77 24 -9 44 -7 44 4 0 6 -9 10 -19 10
-11 0 -23 5 -26 10 -3 6 3 10 14 10 12 0 21 5 21 11 0 6 -7 9 -15 6 -8 -4 -17
-2 -20 3 -4 6 5 10 19 10 14 0 26 5 26 10 0 11 -43 14 -53 3z"/>
<path d="M960 405 c0 -25 5 -45 10 -45 6 0 10 10 10 22 l0 21 25 -23 c14 -13
25 -18 25 -12 0 6 -5 14 -10 17 -8 5 -7 11 1 21 18 22 3 44 -31 44 -29 0 -30
-2 -30 -45z"/>
<path d="M1045 413 c9 -21 20 -42 25 -47 10 -10 43 61 36 78 -2 6 -10 -4 -18
-22 l-15 -34 -13 31 c-7 17 -16 31 -21 31 -5 0 -2 -17 6 -37z"/>
<path d="M1120 405 c0 -25 5 -45 10 -45 6 0 10 20 10 45 0 25 -4 45 -10 45 -5
0 -10 -20 -10 -45z"/>
<path d="M1154 436 c-3 -8 -4 -27 -2 -43 2 -22 9 -29 31 -31 32 -4 37 15 5 20
-15 2 -24 11 -26 26 -3 18 1 22 22 22 14 0 26 5 26 10 0 15 -50 12 -56 -4z"/>
<path d="M1224 436 c-3 -8 -4 -27 -2 -43 2 -22 9 -29 31 -31 15 -2 27 1 27 7
0 6 -11 11 -25 11 -14 0 -25 5 -25 10 0 6 9 10 20 10 11 0 20 5 20 11 0 6 -9
8 -20 4 -11 -4 -20 -2 -20 4 0 6 11 11 25 11 14 0 25 5 25 10 0 15 -50 12 -56
-4z"/>
<path d="M1352 438 c-14 -14 -16 -78 -2 -78 6 0 10 16 10 35 0 28 4 35 20 35
16 0 20 -7 20 -33 0 -26 4 -33 20 -33 13 0 20 7 20 18 0 11 7 18 20 18 27 0
25 18 -2 23 -20 4 -19 4 5 6 33 1 36 21 3 21 -24 0 -39 -13 -42 -35 -4 -35 -7
-36 -13 -5 -6 38 -35 52 -59 28z"/>
<path d="M1507 443 c-4 -3 -7 -21 -7 -39 0 -24 5 -34 20 -39 40 -13 68 43 38
73 -13 13 -41 16 -51 5z m43 -39 c0 -33 -33 -30 -38 4 -3 17 2 22 17 22 16 0
21 -6 21 -26z"/>
<path d="M1581 403 c1 -27 4 -38 6 -25 5 27 19 28 33 3 5 -11 19 -19 30 -18
16 1 20 8 20 34 0 23 5 33 15 33 11 0 15 -11 15 -36 0 -19 4 -33 8 -30 5 3 7
19 4 36 -3 23 0 30 12 30 12 0 16 -9 16 -35 0 -19 5 -35 10 -35 14 0 12 66 -3
78 -7 6 -28 10 -47 9 -29 -2 -35 -6 -38 -27 -2 -14 -5 -32 -8 -40 -4 -12 -6
-13 -14 0 -5 9 -5 19 2 27 15 18 -8 43 -38 43 -22 0 -24 -4 -23 -47z"/>
<path d="M1774 436 c-3 -8 -4 -29 -1 -48 l4 -33 1 38 c2 30 6 37 22 37 11 0
20 -4 20 -10 0 -5 -7 -10 -16 -10 -8 0 -12 -5 -9 -10 4 -6 11 -8 16 -5 5 4 9
-3 9 -14 0 -12 5 -21 10 -21 14 0 12 64 -2 78 -16 16 -47 15 -54 -2z"/>
<path d="M1853 436 c10 -8 17 -26 17 -45 0 -17 5 -31 10 -31 6 0 10 16 10 35
0 19 5 35 10 35 6 0 10 5 10 10 0 6 -17 10 -37 10 -34 -1 -36 -2 -20 -14z"/>
<path d="M1920 404 c0 -27 4 -43 10 -39 6 3 10 24 10 46 0 21 -4 39 -10 39 -5
0 -10 -21 -10 -46z"/>
<path d="M1954 436 c-3 -8 -4 -27 -2 -43 2 -23 8 -28 33 -30 28 -1 31 2 33 29
1 17 -3 37 -9 44 -15 18 -48 18 -55 0z m44 -28 c-5 -34 -38 -37 -38 -4 0 20 5
26 21 26 15 0 20 -5 17 -22z"/>
<path d="M2031 419 c-2 -73 61 -78 67 -5 2 21 -1 36 -7 36 -6 0 -11 -16 -11
-36 0 -49 -32 -44 -41 6 l-6 35 -2 -36z"/>
<path d="M2114 436 c-3 -8 -4 -27 -2 -43 2 -22 9 -29 31 -31 15 -2 27 1 27 7
0 6 -11 11 -25 11 -14 0 -25 5 -25 10 0 6 9 10 20 10 11 0 20 5 20 11 0 6 -9
8 -20 4 -11 -4 -20 -2 -20 4 0 6 11 11 25 11 14 0 25 5 25 10 0 15 -50 12 -56
-4z"/>
</g>
</svg>
